<mxfile host="app.diagrams.net" modified="2021-06-22T11:14:03.132Z" agent="5.0 (Macintosh; Intel Mac OS X 10_15_7) AppleWebKit/537.36 (KHTML, like Gecko) Chrome/86.0.4240.193 Safari/537.36" etag="o8TfqAL4KSRoqVu-L1Ap" version="14.8.0" type="github">
  <diagram id="6q400pMAVtT_Aivm6bIF" name="Page-1">
    <mxGraphModel dx="946" dy="536" grid="1" gridSize="10" guides="1" tooltips="1" connect="1" arrows="1" fold="1" page="1" pageScale="1" pageWidth="827" pageHeight="1169" math="0" shadow="0">
      <root>
        <mxCell id="0" />
        <mxCell id="1" parent="0" />
        <mxCell id="lMZgErecc5RTo_B6NhKM-1" value="1" style="ellipse;whiteSpace=wrap;html=1;aspect=fixed;" vertex="1" parent="1">
          <mxGeometry x="160" y="140" width="80" height="80" as="geometry" />
        </mxCell>
        <mxCell id="lMZgErecc5RTo_B6NhKM-2" value="2" style="ellipse;whiteSpace=wrap;html=1;aspect=fixed;" vertex="1" parent="1">
          <mxGeometry x="300" y="140" width="80" height="80" as="geometry" />
        </mxCell>
        <mxCell id="lMZgErecc5RTo_B6NhKM-3" value="3" style="ellipse;whiteSpace=wrap;html=1;aspect=fixed;" vertex="1" parent="1">
          <mxGeometry x="430" y="140" width="80" height="80" as="geometry" />
        </mxCell>
        <mxCell id="lMZgErecc5RTo_B6NhKM-4" value="4" style="ellipse;whiteSpace=wrap;html=1;aspect=fixed;" vertex="1" parent="1">
          <mxGeometry x="560" y="140" width="80" height="80" as="geometry" />
        </mxCell>
        <mxCell id="lMZgErecc5RTo_B6NhKM-12" style="edgeStyle=orthogonalEdgeStyle;rounded=0;orthogonalLoop=1;jettySize=auto;html=1;exitX=0.5;exitY=1;exitDx=0;exitDy=0;entryX=0.5;entryY=1;entryDx=0;entryDy=0;" edge="1" parent="1" source="lMZgErecc5RTo_B6NhKM-5" target="lMZgErecc5RTo_B6NhKM-7">
          <mxGeometry relative="1" as="geometry" />
        </mxCell>
        <mxCell id="lMZgErecc5RTo_B6NhKM-5" value="preHead" style="ellipse;whiteSpace=wrap;html=1;aspect=fixed;" vertex="1" parent="1">
          <mxGeometry x="30" y="280" width="80" height="80" as="geometry" />
        </mxCell>
        <mxCell id="lMZgErecc5RTo_B6NhKM-9" style="edgeStyle=orthogonalEdgeStyle;rounded=0;orthogonalLoop=1;jettySize=auto;html=1;exitX=1;exitY=0;exitDx=0;exitDy=0;entryX=0.5;entryY=0;entryDx=0;entryDy=0;" edge="1" parent="1" source="lMZgErecc5RTo_B6NhKM-6" target="lMZgErecc5RTo_B6NhKM-8">
          <mxGeometry relative="1" as="geometry">
            <Array as="points">
              <mxPoint x="228" y="260" />
              <mxPoint x="480" y="260" />
            </Array>
          </mxGeometry>
        </mxCell>
        <mxCell id="lMZgErecc5RTo_B6NhKM-6" value="1" style="ellipse;whiteSpace=wrap;html=1;aspect=fixed;" vertex="1" parent="1">
          <mxGeometry x="160" y="280" width="80" height="80" as="geometry" />
        </mxCell>
        <mxCell id="lMZgErecc5RTo_B6NhKM-13" style="edgeStyle=orthogonalEdgeStyle;rounded=0;orthogonalLoop=1;jettySize=auto;html=1;exitX=0;exitY=0.5;exitDx=0;exitDy=0;entryX=1;entryY=0.5;entryDx=0;entryDy=0;" edge="1" parent="1" source="lMZgErecc5RTo_B6NhKM-7" target="lMZgErecc5RTo_B6NhKM-6">
          <mxGeometry relative="1" as="geometry" />
        </mxCell>
        <mxCell id="lMZgErecc5RTo_B6NhKM-7" value="2" style="ellipse;whiteSpace=wrap;html=1;aspect=fixed;" vertex="1" parent="1">
          <mxGeometry x="300" y="280" width="80" height="80" as="geometry" />
        </mxCell>
        <mxCell id="lMZgErecc5RTo_B6NhKM-15" style="edgeStyle=orthogonalEdgeStyle;rounded=0;orthogonalLoop=1;jettySize=auto;html=1;exitX=1;exitY=0.5;exitDx=0;exitDy=0;entryX=0;entryY=0.5;entryDx=0;entryDy=0;" edge="1" parent="1" source="lMZgErecc5RTo_B6NhKM-8" target="lMZgErecc5RTo_B6NhKM-10">
          <mxGeometry relative="1" as="geometry" />
        </mxCell>
        <mxCell id="lMZgErecc5RTo_B6NhKM-8" value="3" style="ellipse;whiteSpace=wrap;html=1;aspect=fixed;" vertex="1" parent="1">
          <mxGeometry x="440" y="280" width="80" height="80" as="geometry" />
        </mxCell>
        <mxCell id="lMZgErecc5RTo_B6NhKM-10" value="4" style="ellipse;whiteSpace=wrap;html=1;aspect=fixed;" vertex="1" parent="1">
          <mxGeometry x="560" y="280" width="80" height="80" as="geometry" />
        </mxCell>
        <mxCell id="lMZgErecc5RTo_B6NhKM-26" style="edgeStyle=orthogonalEdgeStyle;rounded=0;orthogonalLoop=1;jettySize=auto;html=1;exitX=0.5;exitY=1;exitDx=0;exitDy=0;entryX=0.5;entryY=1;entryDx=0;entryDy=0;" edge="1" parent="1" source="lMZgErecc5RTo_B6NhKM-17" target="lMZgErecc5RTo_B6NhKM-23">
          <mxGeometry relative="1" as="geometry" />
        </mxCell>
        <mxCell id="lMZgErecc5RTo_B6NhKM-17" value="preHead" style="ellipse;whiteSpace=wrap;html=1;aspect=fixed;" vertex="1" parent="1">
          <mxGeometry x="35" y="460" width="80" height="80" as="geometry" />
        </mxCell>
        <mxCell id="lMZgErecc5RTo_B6NhKM-31" style="edgeStyle=orthogonalEdgeStyle;rounded=0;orthogonalLoop=1;jettySize=auto;html=1;exitX=0.5;exitY=0;exitDx=0;exitDy=0;entryX=0.5;entryY=0;entryDx=0;entryDy=0;" edge="1" parent="1" source="lMZgErecc5RTo_B6NhKM-19" target="lMZgErecc5RTo_B6NhKM-24">
          <mxGeometry relative="1" as="geometry" />
        </mxCell>
        <mxCell id="lMZgErecc5RTo_B6NhKM-19" value="1" style="ellipse;whiteSpace=wrap;html=1;aspect=fixed;" vertex="1" parent="1">
          <mxGeometry x="165" y="460" width="80" height="80" as="geometry" />
        </mxCell>
        <mxCell id="lMZgErecc5RTo_B6NhKM-29" style="edgeStyle=orthogonalEdgeStyle;rounded=0;orthogonalLoop=1;jettySize=auto;html=1;exitX=0;exitY=0.5;exitDx=0;exitDy=0;entryX=1;entryY=0.5;entryDx=0;entryDy=0;" edge="1" parent="1" source="lMZgErecc5RTo_B6NhKM-21" target="lMZgErecc5RTo_B6NhKM-19">
          <mxGeometry relative="1" as="geometry" />
        </mxCell>
        <mxCell id="lMZgErecc5RTo_B6NhKM-21" value="2" style="ellipse;whiteSpace=wrap;html=1;aspect=fixed;" vertex="1" parent="1">
          <mxGeometry x="305" y="460" width="80" height="80" as="geometry" />
        </mxCell>
        <mxCell id="lMZgErecc5RTo_B6NhKM-30" style="edgeStyle=orthogonalEdgeStyle;rounded=0;orthogonalLoop=1;jettySize=auto;html=1;exitX=0;exitY=0.5;exitDx=0;exitDy=0;" edge="1" parent="1" source="lMZgErecc5RTo_B6NhKM-23">
          <mxGeometry relative="1" as="geometry">
            <mxPoint x="390" y="500" as="targetPoint" />
          </mxGeometry>
        </mxCell>
        <mxCell id="lMZgErecc5RTo_B6NhKM-23" value="3" style="ellipse;whiteSpace=wrap;html=1;aspect=fixed;" vertex="1" parent="1">
          <mxGeometry x="445" y="460" width="80" height="80" as="geometry" />
        </mxCell>
        <mxCell id="lMZgErecc5RTo_B6NhKM-24" value="4" style="ellipse;whiteSpace=wrap;html=1;aspect=fixed;" vertex="1" parent="1">
          <mxGeometry x="565" y="460" width="80" height="80" as="geometry" />
        </mxCell>
        <mxCell id="lMZgErecc5RTo_B6NhKM-41" style="edgeStyle=orthogonalEdgeStyle;rounded=0;orthogonalLoop=1;jettySize=auto;html=1;exitX=0.5;exitY=1;exitDx=0;exitDy=0;entryX=0.5;entryY=1;entryDx=0;entryDy=0;" edge="1" parent="1" source="lMZgErecc5RTo_B6NhKM-33" target="lMZgErecc5RTo_B6NhKM-40">
          <mxGeometry relative="1" as="geometry" />
        </mxCell>
        <mxCell id="lMZgErecc5RTo_B6NhKM-33" value="preHead" style="ellipse;whiteSpace=wrap;html=1;aspect=fixed;" vertex="1" parent="1">
          <mxGeometry x="35" y="605" width="80" height="80" as="geometry" />
        </mxCell>
        <mxCell id="lMZgErecc5RTo_B6NhKM-34" style="edgeStyle=orthogonalEdgeStyle;rounded=0;orthogonalLoop=1;jettySize=auto;html=1;exitX=0.5;exitY=0;exitDx=0;exitDy=0;entryX=0.5;entryY=0;entryDx=0;entryDy=0;" edge="1" parent="1" source="lMZgErecc5RTo_B6NhKM-35" target="lMZgErecc5RTo_B6NhKM-40">
          <mxGeometry relative="1" as="geometry" />
        </mxCell>
        <mxCell id="lMZgErecc5RTo_B6NhKM-35" value="1" style="ellipse;whiteSpace=wrap;html=1;aspect=fixed;" vertex="1" parent="1">
          <mxGeometry x="165" y="605" width="80" height="80" as="geometry" />
        </mxCell>
        <mxCell id="lMZgErecc5RTo_B6NhKM-36" style="edgeStyle=orthogonalEdgeStyle;rounded=0;orthogonalLoop=1;jettySize=auto;html=1;exitX=0;exitY=0.5;exitDx=0;exitDy=0;entryX=1;entryY=0.5;entryDx=0;entryDy=0;" edge="1" parent="1" source="lMZgErecc5RTo_B6NhKM-37" target="lMZgErecc5RTo_B6NhKM-35">
          <mxGeometry relative="1" as="geometry" />
        </mxCell>
        <mxCell id="lMZgErecc5RTo_B6NhKM-37" value="2" style="ellipse;whiteSpace=wrap;html=1;aspect=fixed;" vertex="1" parent="1">
          <mxGeometry x="305" y="605" width="80" height="80" as="geometry" />
        </mxCell>
        <mxCell id="lMZgErecc5RTo_B6NhKM-38" style="edgeStyle=orthogonalEdgeStyle;rounded=0;orthogonalLoop=1;jettySize=auto;html=1;exitX=0;exitY=0.5;exitDx=0;exitDy=0;" edge="1" parent="1" source="lMZgErecc5RTo_B6NhKM-39">
          <mxGeometry relative="1" as="geometry">
            <mxPoint x="390" y="645" as="targetPoint" />
          </mxGeometry>
        </mxCell>
        <mxCell id="lMZgErecc5RTo_B6NhKM-39" value="3" style="ellipse;whiteSpace=wrap;html=1;aspect=fixed;" vertex="1" parent="1">
          <mxGeometry x="445" y="605" width="80" height="80" as="geometry" />
        </mxCell>
        <mxCell id="lMZgErecc5RTo_B6NhKM-42" style="edgeStyle=orthogonalEdgeStyle;rounded=0;orthogonalLoop=1;jettySize=auto;html=1;exitX=0;exitY=0.5;exitDx=0;exitDy=0;entryX=1;entryY=0.5;entryDx=0;entryDy=0;" edge="1" parent="1" source="lMZgErecc5RTo_B6NhKM-40" target="lMZgErecc5RTo_B6NhKM-39">
          <mxGeometry relative="1" as="geometry" />
        </mxCell>
        <mxCell id="lMZgErecc5RTo_B6NhKM-40" value="4" style="ellipse;whiteSpace=wrap;html=1;aspect=fixed;" vertex="1" parent="1">
          <mxGeometry x="565" y="605" width="80" height="80" as="geometry" />
        </mxCell>
      </root>
    </mxGraphModel>
  </diagram>
</mxfile>
